<svg width="94" height="94" viewBox="0 0 94 94" fill="none" xmlns="http://www.w3.org/2000/svg">
<g id="Group">
<g id="Group_2">
<path id="Vector" d="M94 47C94 46.429 93.9897 45.8602 93.9697 45.2942C93.0717 20.127 72.3864 0 47 0C21.6136 0 0.92825 20.127 0.0304766 45.2942C0.0102812 45.8602 0 46.429 0 47C0 72.9574 24.1429 92.2944 47 92.2944C70.2712 92.2944 94 72.9574 94 47Z" fill="#ED553B"/>
<path id="Vector_2" d="M47 90.5886C21.6139 90.5886 0.932289 70.461 0.0341484 45.2942C0.0137695 45.8608 0 46.4286 0 47C0 72.9574 21.0426 94 47 94C72.9574 94 94 72.9574 94 47C94 46.4286 93.9862 45.8608 93.966 45.2944C93.0677 70.4612 72.3861 90.5886 47 90.5886Z" fill="#3D559D"/>
<path id="Vector_3" d="M86.1823 45.2942C85.2893 24.4256 68.0884 7.78101 46.9999 7.78101C25.9114 7.78101 8.71053 24.4256 7.81753 45.2942C7.79329 45.8598 7.81734 83.7242 46.9999 83.7242C86.1825 83.7242 86.2065 45.8598 86.1823 45.2942Z" fill="white"/>
<path id="Vector_4" d="M47.0002 82.8075C25.9119 82.8075 8.71372 66.1626 7.82036 45.2942C7.79612 45.86 7.78125 46.4281 7.78125 46.9998C7.78125 68.6598 25.3402 86.2187 47.0002 86.2187C68.6602 86.2187 86.2191 68.66 86.2191 47C86.2191 46.4282 86.2041 45.86 86.18 45.2944C85.2866 66.1627 68.0885 82.8075 47.0002 82.8075Z" fill="#D5E0F2"/>
<path id="Vector_5" d="M61.2455 33.2398C60.1276 32.1373 58.3277 32.1496 57.2254 33.2673L50.5547 40.0304L51.225 43.25L54.3409 44.2881L61.2733 37.2599C62.3755 36.1422 62.3632 34.3423 61.2455 33.2398Z" fill="#405B6C"/>
<path id="Vector_6" d="M42.9757 40.2891L27.8472 26.8074C26.675 25.7628 24.8782 25.8663 23.8337 27.0386C22.7892 28.2106 22.8926 30.0076 24.0648 31.0521L39.4913 44.7992L42.7059 43.727L42.9757 40.2891Z" fill="#405B6C"/>
<path id="Vector_7" d="M67.1294 65.3295C66.8067 65.3295 66.4825 65.2203 66.2159 64.9965L48.2103 49.8724C47.6094 49.3675 47.5312 48.4708 48.0361 47.8699C48.541 47.2687 49.4374 47.1906 50.0387 47.6957L68.0443 62.82C68.6452 63.3248 68.7234 64.2215 68.2185 64.8224C67.9374 65.1571 67.5348 65.3295 67.1294 65.3295Z" fill="#86DCFF"/>
<path id="Vector_8" d="M39.4902 44.7992L42.145 47.165L45.5543 46.0065L45.3695 42.423L42.9748 40.2891C41.3087 41.2902 40.0476 42.8943 39.4902 44.7992Z" fill="#2D4456"/>
<path id="Vector_9" d="M50.554 40.0305L48.2969 42.3188V46.8106H51.8523L54.3404 44.2882C53.6567 42.4384 52.2932 40.9195 50.554 40.0305Z" fill="#2D4456"/>
<path id="Vector_10" d="M51.5486 45.294C50.8579 43.4525 49.0813 42.1418 46.9986 42.1418C44.9159 42.1418 43.1393 43.4525 42.4486 45.294C42.2496 45.8247 42.4354 50.1522 46.9986 50.1522C51.5618 50.1522 51.7476 45.8247 51.5486 45.294Z" fill="#ED553B"/>
<path id="Vector_11" d="M46.9987 48.4467C44.916 48.4467 43.1401 47.1359 42.4494 45.2944C42.2502 45.8252 42.1406 46.3997 42.1406 47C42.1406 49.6831 44.3157 51.8579 46.9985 51.8579C49.6816 51.8579 51.8564 49.6829 51.8564 47C51.8564 46.3997 51.7468 45.8252 51.5478 45.2944C50.8573 47.1357 49.0814 48.4467 46.9987 48.4467Z" fill="#3D559D"/>
</g>
<g id="Group_3">
<path id="Vector_12" d="M48.4244 17.1793V12.7681C48.4244 11.9816 47.7868 11.344 47.0003 11.344C46.2138 11.344 45.5762 11.9816 45.5762 12.7681V17.1793C45.5762 17.9659 46.2136 18.6035 47.0003 18.6035C47.787 18.6035 48.4244 17.9659 48.4244 17.1793Z" fill="#405B6C"/>
<path id="Vector_13" d="M45.5762 76.8206V81.2318C45.5762 82.0183 46.2136 82.656 47.0003 82.656C47.787 82.656 48.4244 82.0183 48.4244 81.2318V76.8206C48.4244 76.0341 47.7868 75.3965 47.0003 75.3965C46.2138 75.3965 45.5762 76.0341 45.5762 76.8206Z" fill="#405B6C"/>
<path id="Vector_14" d="M81.2318 48.424C82.0185 48.424 82.656 47.7863 82.656 46.9998C82.656 46.2133 82.0183 45.5757 81.2318 45.5757H76.8206C76.0341 45.5757 75.3965 46.2133 75.3965 46.9998C75.3965 47.7863 76.0341 48.424 76.8206 48.424H81.2318Z" fill="#405B6C"/>
<path id="Vector_15" d="M12.7679 45.5757C11.9812 45.5757 11.3438 46.2133 11.3438 46.9998C11.3438 47.7863 11.9812 48.424 12.7679 48.424H17.1791C17.9658 48.424 18.6032 47.7863 18.6032 46.9998C18.6032 46.2133 17.9656 45.5757 17.1791 45.5757H12.7679Z" fill="#405B6C"/>
</g>
</g>
</svg>
