<svg width="62" height="70" viewBox="0 0 62 70" fill="none" xmlns="http://www.w3.org/2000/svg">
<path d="M42.0736 67.4142V8.34504C42.0736 6.91687 40.9159 5.75928 39.4877 5.75928H3.37482C1.94666 5.75928 0.789062 6.91701 0.789062 8.34504V67.4142C0.789062 68.8424 1.9468 70 3.37482 70H39.4879C40.9159 70 42.0736 68.8423 42.0736 67.4142Z" fill="#ED553B"/>
<path d="M47.9667 5.75903H39.3125C40.7407 5.75903 41.8984 6.91677 41.8984 8.34479V67.414C41.8984 68.8422 40.7407 69.9998 39.3125 69.9998H47.9667C49.3948 69.9998 50.5526 68.842 50.5526 67.414V8.34493C50.5526 6.91677 49.3948 5.75903 47.9667 5.75903Z" fill="#ED553B"/>
<path d="M5.01562 64.8492V10.9098C5.01562 10.3993 5.42947 9.9856 5.93984 9.9856H45.4012C45.9118 9.9856 46.3255 10.3994 46.3255 10.9098V64.8492C46.3255 65.3597 45.9116 65.7734 45.4012 65.7734H5.93984C5.42934 65.7734 5.01562 65.3597 5.01562 64.8492Z" fill="#F5F5F5"/>
<path d="M45.4003 9.9856H36.7461C37.2566 9.9856 37.6703 10.3994 37.6703 10.9098V64.8492C37.6703 65.3597 37.2565 65.7734 36.7461 65.7734H45.4003C45.9108 65.7734 46.3245 65.3596 46.3245 64.8492V10.9098C46.3245 10.3994 45.9108 9.9856 45.4003 9.9856Z" fill="#EAEAEA"/>
<path d="M31.1626 3.21809V1.85678C31.1626 0.831387 30.3313 0 29.3058 0H22.0328C21.0072 0 20.176 0.831387 20.176 1.85678V3.21809C20.176 3.6374 19.836 3.97742 19.4166 3.97742H16.3897C15.3828 3.97742 14.5664 4.79377 14.5664 5.8007V9.98566H36.7721V5.8007C36.7721 4.79377 35.9558 3.97742 34.9488 3.97742H31.9219C31.5026 3.97742 31.1626 3.6374 31.1626 3.21809Z" fill="#C2D0DA"/>
<path d="M10.3926 24.9912V16.8512C10.3926 15.9494 11.1238 15.2183 12.0255 15.2183H20.1655C21.0673 15.2183 21.7985 15.9494 21.7985 16.8512V24.9912C21.7985 25.893 21.0673 26.6242 20.1655 26.6242H12.0255C11.1236 26.6242 10.3926 25.893 10.3926 24.9912Z" fill="#ED553B"/>
<path d="M10.3926 41.9497V33.8097C10.3926 32.9079 11.1238 32.1768 12.0255 32.1768H20.1655C21.0673 32.1768 21.7985 32.9079 21.7985 33.8097V41.9497C21.7985 42.8515 21.0673 43.5827 20.1655 43.5827H12.0255C11.1236 43.5827 10.3926 42.8515 10.3926 41.9497Z" fill="#ED553B"/>
<path d="M10.3926 58.9082V50.7682C10.3926 49.8664 11.1238 49.1353 12.0255 49.1353H20.1655C21.0673 49.1353 21.7985 49.8664 21.7985 50.7682V58.9082C21.7985 59.81 21.0673 60.5412 20.1655 60.5412H12.0255C11.1236 60.5412 10.3926 59.8101 10.3926 58.9082Z" fill="#ED553B"/>
<path d="M15.408 23.8363C15.4068 23.8363 15.4057 23.8363 15.4044 23.8363C14.9381 23.8352 14.4958 23.6093 14.2211 23.2324L12.9877 21.5385C12.6442 21.0668 12.7481 20.406 13.2198 20.0626C13.6915 19.7193 14.3522 19.8232 14.6955 20.2947L15.4107 21.277L17.5018 18.436C17.8477 17.9661 18.5089 17.8658 18.9787 18.2115C19.4486 18.5573 19.5491 19.2186 19.2032 19.6885L16.5902 23.2384C16.3147 23.6129 15.8728 23.8363 15.408 23.8363Z" fill="#F6F9F9"/>
<path d="M15.4079 41.1639C15.4065 41.1639 15.4053 41.1639 15.404 41.1639C14.9377 41.1627 14.4954 40.9369 14.2209 40.5597L12.9877 38.8661C12.6442 38.3944 12.7481 37.7336 13.2198 37.3902C13.6915 37.0469 14.3522 37.1508 14.6955 37.6223L15.4107 38.6046L17.5018 35.7636C17.8477 35.2939 18.5089 35.1934 18.9787 35.5391C19.4486 35.8849 19.5491 36.5462 19.2032 37.0161L16.5902 40.566C16.3147 40.9408 15.8728 41.1639 15.4079 41.1639Z" fill="#F6F9F9"/>
<path d="M15.4078 57.7535C15.4066 57.7535 15.4053 57.7535 15.4042 57.7534C14.938 57.7523 14.4956 57.5265 14.2211 57.1497L12.9876 55.4555C12.6442 54.9838 12.7482 54.3232 13.2199 53.9798C13.6918 53.6363 14.3523 53.7405 14.6956 54.2121L15.4107 55.1942L17.5019 52.3532C17.8478 51.8835 18.509 51.783 18.9788 52.1287C19.4487 52.4745 19.5492 53.1358 19.2033 53.6057L16.5903 57.1556C16.3145 57.5301 15.8728 57.7535 15.4078 57.7535Z" fill="#F6F9F9"/>
<path d="M40.1189 19.7703H27.0602C26.4768 19.7703 26.0039 19.2974 26.0039 18.714C26.0039 18.1306 26.4768 17.6577 27.0602 17.6577H40.1189C40.7023 17.6577 41.1752 18.1306 41.1752 18.714C41.1752 19.2974 40.7023 19.7703 40.1189 19.7703Z" fill="#DDEAFB"/>
<path d="M33.5875 24.1846H27.0582C26.4749 24.1846 26.002 23.7117 26.002 23.1283C26.002 22.5449 26.4749 22.072 27.0582 22.072H33.5875C34.1709 22.072 34.6438 22.5449 34.6438 23.1283C34.6438 23.7117 34.1709 24.1846 33.5875 24.1846Z" fill="#DDEAFB"/>
<path d="M35.82 36.7288H27.0582C26.4749 36.7288 26.002 36.2559 26.002 35.6725C26.002 35.0891 26.4749 34.6162 27.0582 34.6162H35.82C36.4034 34.6162 36.8763 35.0891 36.8763 35.6725C36.8763 36.2559 36.4034 36.7288 35.82 36.7288Z" fill="#DDEAFB"/>
<path d="M33.5875 41.1431H27.0582C26.4749 41.1431 26.002 40.6702 26.002 40.0868C26.002 39.5034 26.4749 39.0305 27.0582 39.0305H33.5875C34.1709 39.0305 34.6438 39.5034 34.6438 40.0868C34.6438 40.6702 34.1709 41.1431 33.5875 41.1431Z" fill="#DDEAFB"/>
<path d="M57.0977 27.5784L56.0605 26.2121L52.1798 23.7545L50.688 23.5195L30.8166 54.9201C30.3372 55.6773 29.9854 56.5081 29.7754 57.3793C32.1931 57.4092 34.3876 58.7988 35.4484 60.9717C36.1462 60.4094 36.7468 59.7362 37.2263 58.979L57.0977 27.5784Z" fill="#FC8086"/>
<path d="M59.9042 17.909L58.2273 16.8471C56.9202 16.0192 55.1893 16.4082 54.3619 17.7156L52.8242 20.1455L53.3148 21.1344L57.981 24.0893L59.234 24.2044L60.7726 21.773C61.5995 20.4663 61.2108 18.7364 59.9042 17.909Z" fill="#8C9BA6"/>
<path d="M50.6914 23.5107L52.8276 20.1368L59.2384 24.1957L57.1022 27.5697L50.6914 23.5107Z" fill="#C9E2E7"/>
<path d="M35.4488 60.9718L29.7907 65.5314C28.9926 66.1746 27.8329 65.4403 28.0731 64.4438L29.7758 57.3794C32.1936 57.4092 34.3882 58.7989 35.4488 60.9718Z" fill="#7C8B96"/>
<path d="M33.9645 59.0143L54.7949 26.12L53.01 24.9897L32.1797 57.884C32.8332 58.1594 33.4361 58.5412 33.9645 59.0143Z" fill="#FB636F"/>
</svg>
