<svg width="69" height="45" xmlns="http://www.w3.org/2000/svg" fill="none">
 <defs>
  <clipPath id="a">
   <path id="svg_1" d="m0,0l69,0l0,63l-69,0l0,-63z" fill="#fff"/>
  </clipPath>
 </defs>
 <g>
  <title>Слой 1</title>
  <g id="svg_2" clip-path="url(#a)">
   <path id="svg_3" fill="#000" d="m34.55,0.477l29.484,0c2.627,0 4.277,1.101 4.762,3.175a9.77,9.77 0 0 1 0.197,2.141l0,33.474c0,3.798 -1.439,5.316 -5.247,5.316l-58.514,0c-3.717,0 -5.209,-1.518 -5.216,-5.21l0,-33.603c0,-3.759 1.514,-5.262 5.3,-5.27c9.73,-0.068 19.481,-0.023 29.234,-0.023zm0,1.382l-29.015,0c-3.104,0 -4.073,0.957 -4.08,4.025l0,33.991c0,2.05 0.96,3.038 3.028,3.258c0.425,0.042 0.852,0.057 1.28,0.045l57.497,0c0.632,-0.01 1.262,-0.068 1.886,-0.174a2.533,2.533 0 0 0 1.592,-0.74c0.426,-0.429 0.685,-0.996 0.732,-1.6c0.088,-0.587 0.131,-1.181 0.129,-1.776l0,-32.578a12.814,12.814 0 0 0 -0.174,-2.157a2.471,2.471 0 0 0 -0.683,-1.437a2.458,2.458 0 0 0 -1.415,-0.72a10.73,10.73 0 0 0 -2.052,-0.16l-28.726,0.023l0.001,0z"/>
   <path id="svg_4" fill="#2767AF" d="m30.991,30.853l-4.316,0l2.696,-16.615l4.316,0l-2.697,16.615l0.001,0zm-7.943,-16.653l-4.111,11.39l-0.492,-2.46l-1.446,-7.465a1.854,1.854 0 0 0 -0.72,-1.168a1.843,1.843 0 0 0 -1.325,-0.35l-6.814,0l-0.083,0.28a16.048,16.048 0 0 1 4.543,1.9l3.732,14.526l4.498,0l6.86,-16.653l-4.642,0zm33.929,16.653l3.96,0l-3.453,-16.653l-3.468,0a1.972,1.972 0 0 0 -1.991,1.238l-6.436,15.415l4.498,0l0.9,-2.468l5.475,0l0.515,2.468zm-4.748,-5.877l2.272,-6.22l1.28,6.22l-3.552,0zm-6.3,-6.744l0.614,-3.569a12.463,12.463 0 0 0 -3.877,-0.721c-2.142,0 -7.223,0.934 -7.223,5.498c0,4.29 5.959,4.343 5.959,6.599c0,2.255 -5.346,1.853 -7.117,0.433l-0.636,3.728a12,12 0 0 0 4.868,0.942c2.945,0 7.383,-1.519 7.383,-5.695c0,-4.314 -6.02,-4.716 -6.02,-6.6c0,-1.883 4.202,-1.632 6.057,-0.615l-0.007,0l-0.001,0z"/>
   <path id="svg_5" fill="#E7A640" d="m18.452,23.168l-1.452,-7.503a1.854,1.854 0 0 0 -0.72,-1.168a1.843,1.843 0 0 0 -1.325,-0.35l-6.815,0l-0.083,0.28a16.638,16.638 0 0 1 6.405,3.22a13.067,13.067 0 0 1 3.99,5.521z"/>
  </g>
 </g>
</svg>